<svg width="880" height="139" viewBox="0 0 880 139" fill="none" xmlns="http://www.w3.org/2000/svg">
<path d="M3.14566 137.81C0.524016 137.024 -0.458936 135.582 0.196798 133.485L48.5581 3.53859C49.2139 2.09701 50.2615 1.3761 51.7036 1.3761H54.4558C55.8979 1.3761 56.9456 2.09701 57.6013 3.53859L80.9956 74.901C81.2581 75.818 81.1922 76.6704 80.799 77.4567C80.4058 78.2431 79.7501 78.7669 78.8331 79.0294C78.5705 79.0294 78.3739 79.0954 78.2433 79.226C78.2433 79.226 78.1127 79.226 77.8501 79.226C76.408 79.226 75.3604 78.4397 74.7047 76.8669L52.8831 10.4193L6.29111 135.844C5.63537 137.154 4.58775 137.81 3.14566 137.81ZM114.416 137.81C112.974 137.81 111.926 137.154 111.271 135.844L95.5433 92.9874H51.9002C50.8512 92.9874 50.0002 92.6602 49.3445 92.0044C48.8207 91.3487 48.5581 90.5623 48.5581 89.6453C48.5581 87.5488 49.6717 86.4999 51.9002 86.4999H97.9024C99.2126 86.4999 100.196 87.0897 100.851 88.2692L117.365 133.485C118.021 135.582 117.365 136.958 115.399 137.613L114.416 137.81ZM25.1638 127.391C22.5422 126.604 21.5592 125.162 22.215 123.066L49.5411 42.4636C50.3274 41.0215 51.3764 40.3011 52.6865 40.3011C52.9491 40.3011 53.1457 40.367 53.2763 40.4977C53.4069 40.4977 53.5388 40.4977 53.6695 40.4977C54.5865 40.7602 55.2422 41.35 55.6354 42.267C56.0286 43.0533 56.0945 43.8397 55.832 44.6261L28.3093 125.228C27.6536 126.67 26.6059 127.391 25.1638 127.391ZM21.6252 138.203C20.1831 137.81 19.2001 137.22 18.6763 136.434C18.1525 135.517 18.0206 134.534 18.2831 133.485C18.9389 131.782 20.0525 130.929 21.6252 130.929C21.8877 130.929 22.0843 130.995 22.215 131.126C22.3456 131.126 22.5422 131.126 22.8047 131.126C23.7217 131.519 24.3775 132.175 24.7706 133.092C25.1638 133.878 25.2298 134.731 24.9672 135.648V135.844C24.3115 137.417 23.1979 138.203 21.6252 138.203Z" fill="white"/>
<path d="M344.74 123.262C345.265 123.918 345.396 124.705 345.134 125.621C345.003 126.538 344.61 127.26 343.954 127.784C343.43 128.177 342.774 128.374 341.988 128.374C340.94 128.374 340.088 127.85 339.432 126.801L301.294 70.1829C300.114 68.3476 300.443 66.8409 302.277 65.6613C302.67 65.2681 303.26 65.0716 304.046 65.0716C304.964 65.0716 305.881 65.5307 306.798 66.4477L344.74 123.262ZM290.678 23.0011V134.271C290.678 136.5 289.63 137.614 287.532 137.614C285.305 137.614 284.19 136.5 284.19 134.271V19.8557C284.19 18.9383 284.453 18.1519 284.977 17.4966C285.633 16.8414 286.485 16.5136 287.532 16.5136H326.654C331.372 16.5136 335.697 16.9724 339.629 17.8898C343.693 18.6761 347.099 20.1178 349.852 22.2148C352.736 24.3118 354.963 27.1295 356.536 30.6682C358.109 34.0762 358.895 38.4012 358.895 43.6432C358.895 62.1227 348.542 71.3625 327.834 71.3625H321.739C320.822 71.3625 320.036 71.0352 319.38 70.3795C318.726 69.7238 318.397 68.9374 318.397 68.0204C318.397 67.1034 318.726 66.3817 319.38 65.8579C320.036 65.2022 320.822 64.875 321.739 64.875H327.834C335.436 64.875 341.398 63.3682 345.723 60.3534C350.18 57.3386 352.407 51.7693 352.407 43.6432C352.407 39.4488 351.753 36.0421 350.442 33.4204C349.262 30.6682 347.559 28.5716 345.33 27.1295C343.103 25.5568 340.351 24.5083 337.073 23.9841C333.928 23.3287 330.455 23.0011 326.654 23.0011H290.678ZM338.646 85.9102L370.494 132.502C371.673 134.337 371.412 135.844 369.707 137.024C369.184 137.417 368.594 137.614 367.938 137.614C366.759 137.614 365.842 137.154 365.186 136.237L330.193 84.7306C329.406 83.8136 329.342 82.6988 329.996 81.3886C330.652 80.209 331.635 79.6193 332.945 79.6193C338.449 79.6193 343.496 78.767 348.082 77.0636C352.67 75.3602 356.602 72.9352 359.878 69.7897C363.155 66.6443 365.645 62.8431 367.348 58.3875C369.184 53.9318 370.101 48.8852 370.101 43.25C370.101 30.6682 366.955 21.625 360.664 16.1205C354.373 10.4849 345.134 7.66706 332.945 7.66706H305.029C302.933 7.66706 301.884 6.55309 301.884 4.32502C301.884 2.22809 302.933 1.17957 305.029 1.17957H332.945C346.838 1.17957 357.585 4.58718 365.186 11.4023C372.788 18.0864 376.588 28.7023 376.588 43.25C376.588 55.308 373.181 65.0716 366.365 72.542C359.681 79.8818 350.442 84.3374 338.646 85.9102ZM349.262 130.733C350.311 130.995 351.031 131.585 351.424 132.502C351.818 133.289 351.884 134.206 351.621 135.254H351.424C351.031 136.827 349.918 137.614 348.082 137.614C346.642 137.22 345.659 136.631 345.134 135.844C344.61 134.927 344.479 134.009 344.74 133.092V132.895C345.396 131.323 346.51 130.536 348.082 130.536C348.608 130.536 349.001 130.602 349.262 130.733Z" fill="white"/>
<path d="M548.514 138.4C547.597 138.4 546.811 138.073 546.155 137.417C545.499 136.761 545.172 135.975 545.172 135.058V78.0465C545.172 77.1295 545.499 76.3432 546.155 75.6874C546.811 75.0317 547.597 74.7045 548.514 74.7045H602.183C603.1 74.7045 603.887 75.0317 604.542 75.6874C605.198 76.3432 605.525 77.1295 605.525 78.0465C605.525 78.9635 605.198 79.7499 604.542 80.4056C603.887 80.9294 603.1 81.192 602.183 81.192H551.659V131.912H619.876C621.973 131.912 623.022 132.961 623.022 135.058C623.022 135.975 622.695 136.761 622.039 137.417C621.515 138.073 620.793 138.4 619.876 138.4H548.514ZM548.514 64.0886C547.597 64.0886 546.811 63.7614 546.155 63.1056C545.499 62.4499 545.172 61.6635 545.172 60.7465V3.34204C545.172 2.42466 545.499 1.6383 546.155 0.982956C546.811 0.32774 547.597 0 548.514 0C549.431 0 550.153 0.32774 550.676 0.982956C551.332 1.6383 551.659 2.42466 551.659 3.34204V57.6011H602.183C603.1 57.6011 603.887 57.9283 604.542 58.584C605.198 59.1079 605.525 59.8295 605.525 60.7465C605.525 61.6635 605.198 62.4499 604.542 63.1056C603.887 63.7614 603.1 64.0886 602.183 64.0886H548.514ZM619.483 17.6932C620.4 17.6932 621.186 18.0208 621.842 18.6761C622.498 19.3315 622.825 20.1178 622.825 21.0352C622.825 21.9527 622.498 22.7391 621.842 23.3943C621.186 23.9185 620.4 24.1807 619.483 24.1807H568.566V46.1988C568.566 47.1158 568.239 47.9022 567.583 48.5579C566.927 49.2136 566.141 49.5409 565.224 49.5409C564.307 49.5409 563.521 49.2136 562.865 48.5579C562.341 47.9022 562.079 47.1158 562.079 46.1988V21.0352C562.079 20.1178 562.341 19.3315 562.865 18.6761C563.521 18.0208 564.307 17.6932 565.224 17.6932H619.483ZM564.634 7.07727C563.717 7.07727 562.931 6.74967 562.275 6.09432C561.751 5.4391 561.489 4.6526 561.489 3.73522C561.489 1.6383 562.538 0.589774 564.634 0.589774H619.876C620.793 0.589774 621.58 0.917514 622.235 1.57273C622.891 2.09706 623.218 2.81784 623.218 3.73522C623.218 4.6526 622.891 5.4391 622.235 6.09432C621.58 6.74967 620.793 7.07727 619.876 7.07727H564.634ZM620.073 115.006C620.99 115.268 621.646 115.858 622.039 116.775C622.432 117.561 622.498 118.414 622.235 119.331V119.527C621.58 121.1 620.466 121.886 618.893 121.886C617.451 121.493 616.468 120.903 615.945 120.117C615.421 119.2 615.289 118.217 615.551 117.168C616.207 115.595 617.321 114.809 618.893 114.809C619.417 114.809 619.81 114.875 620.073 115.006Z" fill="white"/>
<path d="M798.561 63.6954C791.353 57.142 788.077 49.3443 788.731 40.3011C788.731 40.0386 788.731 39.3841 788.731 38.3352C788.863 37.2863 789.124 36.0421 789.517 34.6C790.041 33.0273 790.763 31.3886 791.68 29.6852C792.597 27.9819 793.908 26.3432 795.612 24.7705C799.806 20.5765 804.721 18.0208 810.356 17.1034C816.123 16.186 821.824 15.7273 827.459 15.7273C829.295 15.8583 832.178 16.2515 836.109 16.9068C840.041 17.431 843.973 18.8073 847.905 21.0352C857.734 26.4092 862.453 34.7966 862.059 46.1989C861.797 48.1648 860.683 49.1477 858.717 49.1477C857.668 49.1477 856.817 48.8205 856.162 48.1648C855.638 47.509 855.441 46.7227 855.572 45.8057C855.834 40.9569 854.852 36.9591 852.623 33.8136C851.444 31.7171 849.871 30.0125 847.905 28.7023C845.939 27.2602 843.776 26.0806 841.417 25.1636C839.058 24.2463 836.635 23.5909 834.144 23.1977C831.784 22.6735 829.491 22.3459 827.263 22.2148C822.545 22.2148 817.696 22.5424 812.715 23.1977C807.866 23.8531 803.672 25.8841 800.133 29.2921C797.644 31.6511 796.201 34.0102 795.808 36.3693C795.415 38.7284 795.219 40.0386 795.219 40.3011C795.088 44.1023 795.612 47.509 796.791 50.5239C797.971 53.4068 799.806 56.0284 802.296 58.3875C804.786 60.7466 807.734 62.975 811.142 65.0716C814.681 67.0375 818.613 68.9374 822.938 70.7727L825.887 72.1488C830.998 74.3773 835.65 76.5398 839.845 78.6363C844.17 80.6022 847.839 82.6988 850.854 84.9272C854.262 87.1557 856.686 89.6454 858.128 92.3977C859.963 95.5431 860.421 98.8192 859.504 102.227C859.111 103.8 858.062 104.586 856.358 104.586C855.048 104.324 854.13 103.866 853.606 103.21C853.082 102.424 852.95 101.571 853.213 100.654C854.262 96.7227 852.099 93.1181 846.725 89.842C841.351 86.5659 833.554 82.6341 823.331 78.0466L820.382 76.867C816.713 75.1637 812.912 73.3284 808.98 71.3625C805.048 69.2659 801.575 66.7103 798.561 63.6954ZM832.964 138.4C826.28 138.007 819.989 136.565 814.091 134.075C808.324 131.585 803.345 128.111 799.15 123.656C795.088 119.331 792.007 114.482 789.911 109.108C787.945 103.734 787.092 98.0988 787.355 92.2011C787.618 90.1046 788.797 89.0556 790.894 89.0556C791.811 89.1863 792.532 89.5794 793.056 90.2352C793.712 90.759 793.973 91.5454 793.842 92.5943C793.449 102.817 796.791 111.664 803.869 119.134C807.538 122.935 811.863 125.949 816.844 128.177C821.824 130.406 827.263 131.65 833.161 131.912C834.209 131.912 834.996 132.24 835.52 132.895C836.175 133.551 836.437 134.337 836.306 135.254C836.306 136.171 835.979 136.958 835.323 137.614C834.667 138.137 833.947 138.4 833.161 138.4H832.964ZM872.675 112.647C868.088 117.495 862.912 120.51 857.145 121.69C851.509 122.869 845.546 123.459 839.255 123.459C836.109 123.328 832.833 122.869 829.425 122.083C826.149 121.297 823.004 120.183 819.989 118.741C817.106 117.299 814.484 115.465 812.125 113.236C809.766 111.008 807.931 108.322 806.621 105.176C806.358 104.39 806.358 103.603 806.621 102.817C807.014 101.9 807.604 101.244 808.39 100.851C808.653 100.851 808.849 100.851 808.98 100.851C809.111 100.72 809.308 100.654 809.57 100.654C811.012 100.654 812.059 101.31 812.715 102.62C813.764 105.242 815.271 107.405 817.237 109.108C819.203 110.811 821.431 112.253 823.921 113.433C826.411 114.482 828.966 115.268 831.588 115.792C834.34 116.316 836.962 116.709 839.451 116.972C842.728 116.972 846.136 116.775 849.674 116.382C853.213 115.989 856.555 115.136 859.7 113.826C862.846 112.516 865.598 110.747 867.957 108.518C870.316 106.159 871.955 103.08 872.872 99.2784C873.003 96.0023 872.872 93.3806 872.479 91.4147C872.086 89.4488 871.103 87.5489 869.53 85.7136C867.564 83.4851 864.419 81.126 860.094 78.6363C855.769 76.0147 849.805 73.0012 842.204 69.5932C836.569 67.1034 831.522 64.7444 827.066 62.5159C822.741 60.2874 819.072 58.0603 816.057 55.8318C808.324 50.0647 805.048 43.9704 806.228 37.5489C806.49 36.3693 806.948 35.6489 807.604 35.3864C808.39 35.1238 809.242 34.9932 810.159 34.9932C811.076 35.1238 811.732 35.583 812.125 36.3693C812.649 37.0251 812.846 37.8114 812.715 38.7284C812.322 40.9569 812.912 43.184 814.484 45.4125C816.057 47.509 818.35 49.6069 821.365 51.7034C824.38 53.6693 827.919 55.7012 831.981 57.7977C836.175 59.7636 840.5 61.7295 844.956 63.6954C853.213 67.4966 859.57 70.7727 864.025 73.525C868.613 76.2772 872.02 78.9636 874.248 81.5852C876.87 84.4681 878.376 87.3523 878.77 90.2352C879.293 93.1181 879.425 96.2635 879.163 99.6715C879.163 99.9341 878.77 101.441 877.983 104.193C877.197 106.815 875.428 109.632 872.675 112.647ZM811.339 94.3636C810.683 95.9363 809.57 96.7227 807.997 96.7227C806.424 96.3295 805.375 95.6738 804.851 94.7568C804.328 93.8398 804.262 92.9215 804.655 92.0045V91.8079C805.048 90.2352 806.162 89.4488 807.997 89.4488C808.26 89.4488 808.456 89.5148 808.587 89.6454C808.717 89.6454 808.914 89.6454 809.177 89.6454C810.094 89.908 810.749 90.4977 811.142 91.4147C811.536 92.3317 811.602 93.25 811.339 94.167V94.3636Z" fill="white"/>
</svg>
